<svg width="55" height="60" viewBox="0 0 55 60" fill="none" xmlns="http://www.w3.org/2000/svg">
<path d="M41.7698 14.5667C41.7698 6.53533 35.2372 0 27.2045 0C19.1732 0 12.6392 6.53533 12.6392 14.5667C12.6405 22.598 19.1732 31.1227 27.2045 31.1227C35.2372 31.1227 41.7698 22.5973 41.7698 14.5667Z" fill="#FFD363"/>
<path d="M0 50.4047C0 55.7034 12.18 60.0001 27.2047 60.0001C42.2293 60.0001 54.4107 55.7034 54.4107 50.4047C54.4107 41.2761 48.098 33.6274 39.6007 31.5701C41.8633 33.0401 43.422 35.4967 43.664 38.3281C45.598 38.7614 47.0493 40.4901 47.0493 42.5534C47.0493 44.9427 45.1053 46.8867 42.716 46.8867C40.3267 46.8867 38.3827 44.9427 38.3827 42.5534C38.3827 40.5281 39.782 38.8274 41.6627 38.3547C41.3547 35.4534 39.2587 33.0861 36.502 32.3594C33.998 33.8427 31.0867 34.7061 27.972 34.7061H26.438C23.3387 34.7061 20.438 33.8507 17.9427 32.3807C15.0647 33.1761 12.932 35.7694 12.8333 38.8734C13.2193 39.0974 13.5313 39.4441 13.7227 39.8641C15.1467 40.5361 16.4047 41.9507 17.368 43.9647C17.5293 44.3041 17.55 44.6867 17.432 45.0361C18.0093 46.5221 18.3393 48.1461 18.3393 49.5101C18.3393 51.4214 18.3393 53.2287 16.256 53.6927C16.03 53.8807 15.748 53.9834 15.4513 53.9834H14.0587C13.36 53.9834 12.792 53.4147 12.792 52.7174L12.7967 52.6281C12.8433 51.9741 13.3973 51.4507 14.0593 51.4507H15.4513C15.5933 51.4507 15.7333 51.4747 15.8673 51.5221C15.9513 51.4981 15.978 51.4787 15.978 51.4787C16.1333 51.2034 16.1333 50.0594 16.1333 49.5101C16.1333 48.4034 15.856 47.0654 15.3693 45.8207C15.1173 45.6774 14.914 45.4607 14.7887 45.1987C13.944 43.4314 12.7967 42.2901 11.8633 42.2901C10.9093 42.2901 9.70467 43.5241 8.86467 45.3594C8.72733 45.6587 8.48667 45.9027 8.19 46.0474C7.75133 47.2367 7.51 48.4614 7.51 49.5094C7.51 49.9707 7.51 51.1954 7.68667 51.4827C7.68867 51.4827 7.728 51.5067 7.838 51.5341C7.982 51.4787 8.13667 51.4501 8.292 51.4501H9.68667C10.3307 51.4501 10.8687 51.9361 10.9427 52.5694L10.95 52.5834L10.9527 52.6674C10.9527 53.4147 10.3847 53.9834 9.68733 53.9834H8.292C8.01533 53.9834 7.748 53.8914 7.528 53.7227C6.732 53.5727 6.17 53.2214 5.814 52.6501C5.384 51.9581 5.30533 51.0501 5.30533 49.5101C5.30533 48.1587 5.61733 46.6034 6.184 45.1174C6.10067 44.7994 6.12867 44.4674 6.26667 44.1681C6.85733 42.8774 7.608 41.7721 8.43733 40.9727C8.89333 40.5334 9.38267 40.1807 9.896 39.9221C10.0893 39.4707 10.4247 39.1021 10.834 38.8681C10.9113 35.7821 12.5513 33.0821 14.9953 31.5267C6.404 33.5174 0 41.2094 0 50.4047ZM30.538 50.0834C30.538 49.8527 30.7473 49.6667 31.004 49.6667H33.538V47.1334C33.538 46.8754 33.724 46.6667 33.9547 46.6667H36.4547C36.684 46.6667 36.8713 46.8754 36.8713 47.1334V49.6667H39.4053C39.6633 49.6667 39.8713 49.8527 39.8713 50.0834V52.5834C39.8713 52.8141 39.6627 53.0001 39.4053 53.0001H36.8713V55.5334C36.8713 55.7914 36.684 56.0001 36.4547 56.0001H33.9547C33.724 56.0001 33.538 55.7914 33.538 55.5334V53.0001H31.004C30.7473 53.0001 30.538 52.8141 30.538 52.5834V50.0834Z" fill="#FFD363"/>
<path d="M42.7163 44.5533C43.8209 44.5533 44.7163 43.6579 44.7163 42.5533C44.7163 41.4488 43.8209 40.5533 42.7163 40.5533C41.6117 40.5533 40.7163 41.4488 40.7163 42.5533C40.7163 43.6579 41.6117 44.5533 42.7163 44.5533Z" fill="#FFD363"/>
</svg>
