<svg width="67" height="60" viewBox="0 0 67 60" fill="none" xmlns="http://www.w3.org/2000/svg">
<path d="M65.6272 30.7423C63.4922 27.6518 58.8354 30.6946 53.9074 33.9159C52.5397 34.8104 51.1542 35.6732 49.8019 36.4185C50.3274 36.6191 50.7552 36.8661 51.0954 37.1174C52.2854 38.0016 52.999 39.3694 53.0505 40.868C53.1578 44.0636 50.5354 45.7041 47.9549 46.8874C45.4031 48.0589 41.3167 48.189 37.7109 48.3029C36.9686 48.3272 36.2425 48.35 35.5501 48.3801C32.023 48.5425 29.408 49.5215 29.3808 49.5296C29.2617 49.5744 29.1405 49.5957 29.0199 49.5957C28.6091 49.5957 28.2218 49.3473 28.0681 48.9409C27.869 48.4154 28.1306 47.8274 28.6554 47.629C28.773 47.5827 31.585 46.5236 35.4583 46.3472C36.1609 46.3156 36.8959 46.2928 37.6477 46.2685C41.0617 46.1612 44.9283 46.0385 47.1075 45.0382C49.9754 43.7204 51.0727 42.5724 51.0153 40.9371C50.9977 40.4233 50.8264 39.4539 49.8813 38.7505C49.2683 38.2956 48.2004 37.8781 46.4225 38.0068C45.689 38.2743 44.982 38.4764 44.3183 38.5771C38.8038 39.4252 34.0331 38.9402 29.7446 36.6419C29.4117 36.4626 28.9927 36.2046 28.4959 35.9018C24.2948 33.3331 14.4565 27.313 5.00778 36.7639H5.00705C5.00705 36.7654 5.00631 36.7654 5.00631 36.7654L0.524474 41.2862C0.159195 41.6551 -0.0598258 42.3196 0.0144061 42.8326L1.36528 52.0674L2.18403 57.6642C2.32662 58.6373 2.81758 58.9306 3.09833 59.0195C3.18065 59.0452 3.28722 59.0665 3.4151 59.0665C3.72379 59.0665 4.14787 58.9401 4.62486 58.4352C4.63883 58.4205 6.00881 56.9763 7.63456 55.696C9.6932 54.0739 11.4755 53.2845 13.0821 53.2845C15.5458 53.2845 18.7708 54.6986 22.1877 56.1958C26.2572 57.9803 30.8706 60 35.1275 60C48.4797 60 59.6622 47.9244 63.9184 39.8082C66.0726 35.7034 66.7128 32.3137 65.6272 30.7423Z" fill="#FFD363"/>
<path d="M26.6449 29.3987H49.789C51.5125 29.3987 52.9163 27.9957 52.9163 26.2714V3.12729C52.9163 1.40305 51.5125 0 49.789 0H26.6449C24.9214 0 23.5176 1.40305 23.5176 3.12729V26.2714C23.5176 27.9957 24.9214 29.3987 26.6449 29.3987ZM29.2158 11.5897C29.2158 11.2531 29.4899 10.9804 29.8265 10.9804H34.4987V6.30823C34.4987 5.97088 34.7714 5.69894 35.1088 5.69894H41.3259C41.6632 5.69894 41.9344 5.97088 41.9344 6.30823V10.9804H46.6073C46.944 10.9804 47.2174 11.2531 47.2174 11.5897V17.8068C47.2174 18.1442 46.944 18.4168 46.6073 18.4168H41.9344V23.0898C41.9344 23.4271 41.6632 23.6991 41.3259 23.6991H35.1088C34.7714 23.6991 34.4987 23.4271 34.4987 23.0898V18.4168H29.8265C29.4899 18.4168 29.2158 18.1442 29.2158 17.8068V11.5897Z" fill="#FFD363"/>
</svg>
