<svg width="44" height="60" viewBox="0 0 44 60" fill="none" xmlns="http://www.w3.org/2000/svg">
<path d="M31.5 33C34.8152 33 37.9946 31.683 40.3388 29.3388C42.683 26.9946 44 23.8152 44 20.5C44 17.1848 42.683 14.0054 40.3388 11.6612C37.9946 9.31696 34.8152 8 31.5 8H22C21.2044 8 20.4413 8.31607 19.8787 8.87868C19.3161 9.44129 19 10.2044 19 11C19 11.7956 19.3161 12.5587 19.8787 13.1213C20.4413 13.6839 21.2044 14 22 14H31.5C33.2239 14 34.8772 14.6848 36.0962 15.9038C37.3152 17.1228 38 18.7761 38 20.5C38 22.2239 37.3152 23.8772 36.0962 25.0962C34.8772 26.3152 33.2239 27 31.5 27H25V21.72C28.4355 21.0734 31.559 19.3041 33.88 16.69C33.1693 16.2363 32.3431 15.9968 31.5 16H22C20.6739 16 19.4021 15.4732 18.4645 14.5355C17.5268 13.5979 17 12.3261 17 11C17 9.67392 17.5268 8.40215 18.4645 7.46447C19.4021 6.52678 20.6739 6 22 6H31.5C33.7272 5.99701 35.9247 6.51045 37.92 7.5C37.9766 7.00204 38.0033 6.50115 38 6V1C37.9992 0.735019 37.8936 0.481109 37.7063 0.293738C37.5189 0.106368 37.265 0.000765122 37 0H7C6.73502 0.000765122 6.48111 0.106368 6.29374 0.293738C6.10637 0.481109 6.00077 0.735019 6 1V6C6.0055 9.72077 7.30589 13.3236 9.67799 16.1902C12.0501 19.0568 15.346 21.0084 19 21.71V27H12.5C9.18479 27 6.00537 28.317 3.66117 30.6612C1.31696 33.0054 0 36.1848 0 39.5C0 42.8152 1.31696 45.9946 3.66117 48.3388C6.00537 50.683 9.18479 52 12.5 52H19V57C19 57.7957 19.3161 58.5587 19.8787 59.1213C20.4413 59.6839 21.2044 60 22 60C22.7956 60 23.5587 59.6839 24.1213 59.1213C24.6839 58.5587 25 57.7957 25 57V52H31C31.7956 52 32.5587 51.6839 33.1213 51.1213C33.6839 50.5587 34 49.7957 34 49C34 48.2043 33.6839 47.4413 33.1213 46.8787C32.5587 46.3161 31.7956 46 31 46H25V33H31.5ZM12.5 46C10.7761 46 9.12279 45.3152 7.90381 44.0962C6.68482 42.8772 6 41.2239 6 39.5C6 37.7761 6.68482 36.1228 7.90381 34.9038C9.12279 33.6848 10.7761 33 12.5 33H19V46H12.5Z" fill="#FFD363"/>
</svg>
