<svg width="60" height="60" viewBox="0 0 60 60" fill="none" xmlns="http://www.w3.org/2000/svg">
<path d="M11.3628 42.036C9.59878 42.036 7.94277 42.72 6.6948 43.9681C4.37881 46.2841 3.70681 53.664 3.58677 55.116C3.56282 55.476 3.6948 55.8121 3.93481 56.064C4.16282 56.292 4.47483 56.4121 4.78677 56.4121H4.88279C6.33481 56.292 13.7268 55.62 16.0308 53.316C18.6108 50.736 18.6108 46.548 16.0308 43.9681C14.7828 42.72 13.1268 42.036 11.3628 42.036Z" fill="#FFD363"/>
<path d="M45.2826 1.38135C39.344 2.72659 32.5568 5.3554 27.4067 10.5119C24.3467 13.5599 21.6706 16.9199 19.5826 20.2919C18.0347 19.4999 16.2947 19.0679 14.5787 19.0679C11.7706 19.0679 9.10666 20.1839 7.07866 22.224L0.34668 28.9439C0.0106446 29.2919 -0.0973145 29.808 0.0946533 30.252C0.274683 30.6959 0.718677 30.9959 1.19863 30.9959H14.9866C13.8826 35.9999 14.6866 40.1279 17.2787 42.7199C19.8467 45.2879 24.0467 46.1039 29.0027 45.0119V58.7999C29.0027 59.2919 29.3027 59.724 29.7467 59.9159C29.9027 59.9759 30.0586 59.9999 30.2027 59.9999C30.5266 59.9999 30.8266 59.88 31.0546 59.652L37.7747 52.9319C41.1586 49.5479 41.8787 44.5679 39.7067 40.4159C43.0787 38.3399 46.4386 35.652 49.4866 32.5919C54.8559 27.2282 57.5042 20.1772 58.7978 14.1105C53.4844 12.5024 47.0216 6.57275 45.2826 1.38135ZM47.4947 21.0959C46.3546 22.2479 44.8187 22.8719 43.1986 22.8719C41.5787 22.8719 40.0546 22.2479 38.9027 21.0959C36.5386 18.7319 36.5386 14.8679 38.9027 12.5039C40.0546 11.352 41.5787 10.7279 43.1986 10.7279C44.8187 10.7279 46.3546 11.352 47.4947 12.5039C49.8706 14.8679 49.8706 18.7319 47.4947 21.0959Z" fill="#FFD363"/>
<path d="M59.9621 1.16396C59.938 0.552026 59.4461 0.0719971 58.8341 0.0359619C58.8341 0.0359619 58.3061 0 57.358 0C55.5329 0 51.933 0.131836 47.6602 0.897217C49.2628 5.21455 54.8115 10.279 59.2461 11.7395C60.2051 5.9658 59.9846 1.54146 59.9621 1.16396Z" fill="#FFD363"/>
</svg>
