<svg width="78" height="60" viewBox="0 0 78 60" fill="none" xmlns="http://www.w3.org/2000/svg">
<path d="M76.2162 46.5405H73.2973V1.62162C73.2973 0.810811 72.4865 0 71.6757 0H6.16216C5.35135 0 4.54054 0.810811 4.54054 1.62162V46.5405H1.62162C0.810811 46.5405 0 47.3514 0 48.1622V54C0 54.3243 0.162162 54.6487 0.324324 54.973L3.56757 59.3513C3.89189 59.8378 4.37838 60 4.86486 60H72.973C73.4595 60 73.9459 59.8378 74.2703 59.3513L77.5135 54.973C77.6757 54.6487 77.8378 54.3243 77.8378 54V48.1622C77.8378 47.1892 77.027 46.5405 76.2162 46.5405ZM11.027 8.10811C11.027 7.2973 11.8378 6.48649 12.6486 6.48649H65.1892C66 6.48649 66.8108 7.2973 66.8108 8.10811V41.6757C66.8108 42.4865 66 43.2973 65.1892 43.2973H12.6486C11.8378 43.2973 11.027 42.4865 11.027 41.6757V8.10811Z" fill="#FFD363"/>
<path d="M30.1617 29.6756H34.0536V33.5675C34.0536 34.5405 34.8644 35.1891 35.6752 35.1891H42.1617C42.9725 35.1891 43.7833 34.5405 43.7833 33.5675V29.6756H47.6752C48.486 29.6756 49.2968 28.8648 49.2968 28.054V21.5675C49.2968 20.5945 48.486 19.9459 47.6752 19.9459H43.7833V16.054C43.7833 15.081 42.9725 14.4324 42.1617 14.4324H35.6752C34.8644 14.4324 34.0536 15.081 34.0536 16.054V19.9459H30.1617C29.3508 19.9459 28.54 20.5945 28.54 21.5675V28.054C28.54 29.027 29.3508 29.6756 30.1617 29.6756Z" fill="#FFD363"/>
</svg>
