<svg width="60" height="60" viewBox="0 0 60 60" fill="none" xmlns="http://www.w3.org/2000/svg">
<path d="M0 0V60H60V0H0ZM32.6752 46.7971C32.6752 52.6352 29.2524 55.2924 24.2562 55.2924C19.7419 55.2924 17.1276 52.9562 15.7981 50.1419L20.3876 47.3638C21.2733 48.9352 22.079 50.2638 24.0162 50.2638C25.8686 50.2638 27.0371 49.5391 27.0371 46.721V27.5495H32.6752V46.7971ZM46 55.3029C40.7619 55.3029 37.381 52.8076 35.7257 49.5371L40.3076 46.8752C41.5162 48.8486 43.0886 50.299 45.8695 50.299C48.2057 50.299 49.6981 49.1314 49.6981 47.5181C49.6981 45.5848 48.1648 44.9 45.5933 43.7752L44.1838 43.1705C40.1152 41.4371 37.4124 39.2657 37.4124 34.6752C37.4124 30.4467 40.6343 27.2276 45.6695 27.2276C49.2543 27.2276 51.8314 28.4752 53.6886 31.7419L49.2981 34.561C48.3314 32.8276 47.2886 32.1448 45.6695 32.1448C44.0181 32.1448 42.9714 33.1924 42.9714 34.561C42.9714 36.2524 44.0191 36.9371 46.4381 37.9848L47.8476 38.5886C52.6381 40.6429 55.3429 42.7371 55.3429 47.4457C55.34 52.5219 51.3524 55.3029 46 55.3029Z" fill="white"/>
</svg>
