<svg width="68" height="60" viewBox="0 0 68 60" fill="none" xmlns="http://www.w3.org/2000/svg">
<g clip-path="url(#clip0)">
<path d="M67.6364 30.0069C67.6364 25.5436 62.0253 21.3138 53.4225 18.6908C55.4078 9.95651 54.5254 3.00755 50.6377 0.782788C49.6957 0.256163 48.6294 -0.00939922 47.5495 0.0137331V3.07622C48.0954 3.05938 48.6365 3.18232 49.1211 3.43328C50.9961 4.50446 51.8095 8.5832 51.1753 13.8293C51.0237 15.1202 50.7755 16.4797 50.4722 17.8668C47.5907 17.1749 44.6661 16.6749 41.7178 16.3699C39.9616 13.9565 38.0456 11.6625 35.9827 9.50332C40.477 5.34218 44.6957 3.06249 47.5633 3.06249V0C43.772 0 38.8089 2.69169 33.7906 7.36095C28.7723 2.71916 23.8092 0.0549325 20.0179 0.0549325V3.11742C22.8717 3.11742 27.1042 5.38338 31.5986 9.51705C29.5454 11.6688 27.643 13.9585 25.9048 16.3699C22.9505 16.6714 20.0208 17.1761 17.1366 17.8805C16.8195 16.5072 16.5851 15.1751 16.4197 13.8979C15.7717 8.65187 16.5713 4.57313 18.4325 3.48821C18.8461 3.24102 19.3838 3.13115 20.0179 3.13115V0.0686656C18.9293 0.0456187 17.8541 0.311018 16.9022 0.83772C13.0282 3.06249 12.1597 9.99771 14.1587 18.7045C5.58351 21.3413 0 25.5573 0 30.0069C0 34.4564 5.61109 38.6999 14.2138 41.323C12.2286 50.0572 13.1109 57.0062 16.9987 59.2309C17.8948 59.7528 18.9426 60 20.1007 60C23.8919 60 28.8551 57.3083 33.8733 52.639C38.8916 57.2808 43.8547 59.9451 47.646 59.9451C48.7346 59.9681 49.8099 59.7027 50.7617 59.176C54.6357 56.9512 55.5043 50.016 53.5052 41.3092C62.0528 38.6862 67.6364 34.4564 67.6364 30.0069ZM49.6864 20.8469C49.1763 22.6185 48.5421 24.445 47.8252 26.2715C47.26 25.1728 46.6672 24.0742 46.0192 22.9755C45.3712 21.8769 44.7095 20.8057 44.0339 19.762C45.9916 20.0504 47.8804 20.4074 49.6864 20.8469ZM43.3722 35.4726C42.2969 37.3266 41.1939 39.0845 40.0497 40.7187C37.9955 40.8972 35.9137 40.9934 33.8182 40.9934C31.7226 40.9934 29.6547 40.8972 27.6143 40.7324C26.47 39.0982 25.3579 37.3587 24.278 35.5139C23.2302 33.7194 22.2743 31.8975 21.4104 30.0481C22.2651 28.2078 23.2302 26.3676 24.2642 24.5686C25.3395 22.7146 26.4424 20.9567 27.5867 19.3225C29.6409 19.144 31.7226 19.0478 33.8182 19.0478C35.9137 19.0478 37.9817 19.144 40.0221 19.3088C41.1664 20.943 42.2785 22.6825 43.3584 24.5274C44.4062 26.3264 45.362 28.1483 46.226 29.9931C45.3574 31.8334 44.4062 33.6736 43.3722 35.4726ZM47.8252 33.6873C48.5697 35.5276 49.2039 37.3678 49.7278 39.1531C47.9217 39.5926 46.0192 39.9634 44.0477 40.2518C44.7233 39.1943 45.3988 38.1094 46.033 36.997C46.6672 35.8846 47.26 34.786 47.8252 33.6873ZM33.8458 48.3406C32.4934 46.9422 31.2142 45.4753 30.0131 43.946C31.2539 44.0009 32.5223 44.0421 33.8044 44.0421C35.0865 44.0421 36.3825 44.0147 37.637 43.946C36.4537 45.4779 35.1881 46.9449 33.8458 48.3406ZM23.5886 40.2518C21.631 39.9634 19.7422 39.6063 17.9362 39.1669C18.4463 37.3953 19.0805 35.5688 19.7974 33.7423C20.3626 34.8409 20.9554 35.9396 21.6034 37.0382C22.2513 38.1369 22.9131 39.2081 23.5886 40.2518ZM33.7768 11.6732C35.1292 13.0716 36.4084 14.5384 37.6095 16.0678C36.3687 16.0128 35.1003 15.9716 33.8182 15.9716C32.536 15.9716 31.2401 15.9991 29.9855 16.0678C31.1688 14.5359 32.4344 13.0689 33.7768 11.6732ZM23.5748 19.762C22.8993 20.8194 22.2238 21.9043 21.5896 23.0167C20.9554 24.1291 20.3626 25.214 19.7974 26.3127C19.0529 24.4724 18.4187 22.6322 17.8948 20.8469C19.7008 20.4212 21.6034 20.0504 23.5748 19.762ZM11.0981 36.9558C6.21769 34.8821 3.06059 32.163 3.06059 30.0069C3.06059 27.8508 6.21769 25.1179 11.0981 23.0579C12.2837 22.5498 13.5797 22.0966 14.9169 21.6709C15.7604 24.5252 16.7967 27.3194 18.0189 30.0343C16.8099 32.7359 15.7873 35.5164 14.9583 38.3566C13.5934 37.9309 12.2975 37.464 11.0981 36.9558ZM18.5152 56.5805C16.6403 55.5093 15.8269 51.4305 16.461 46.1845C16.6127 44.8936 16.8608 43.534 17.1641 42.1469C20.0457 42.8388 22.9703 43.3389 25.9185 43.6439C27.6748 46.0573 29.5908 48.3512 31.6537 50.5104C27.1593 54.6716 22.9407 56.9513 20.0731 56.9513C19.5311 56.9573 18.9959 56.83 18.5152 56.5805ZM51.2167 46.1158C51.8647 51.3619 51.065 55.4406 49.2039 56.5255C48.7903 56.7727 48.2526 56.8826 47.6184 56.8826C44.7646 56.8826 40.5322 54.6166 36.0378 50.483C38.0909 48.3312 39.9933 46.0415 41.7316 43.6301C44.6858 43.3286 47.6155 42.8239 50.4998 42.1195C50.8092 43.4381 51.0485 44.7721 51.2167 46.1158ZM56.5245 36.9558C55.3388 37.464 54.0429 37.9171 52.7056 38.3429C51.8622 35.4885 50.8258 32.6943 49.6037 29.9794C50.8127 27.2779 51.8353 24.4973 52.6643 21.6571C54.0291 22.0829 55.3251 22.5498 56.5383 23.0579C61.4187 25.1316 64.5758 27.8508 64.5758 30.0069C64.5758 32.163 61.4049 34.8959 56.5245 36.9558Z" fill="white"/>
<path d="M33.8043 36.283C37.2839 36.283 40.1047 33.4731 40.1047 30.0069C40.1047 26.5408 37.2839 23.7309 33.8043 23.7309C30.3247 23.7309 27.5039 26.5408 27.5039 30.0069C27.5039 33.4731 30.3247 36.283 33.8043 36.283Z" fill="white"/>
</g>
<defs>
<clipPath id="clip0">
<rect width="67.6364" height="60" fill="white"/>
</clipPath>
</defs>
</svg>
