<svg width="106" height="106" viewBox="0 0 106 106" fill="none" xmlns="http://www.w3.org/2000/svg">
<path d="M106 0L106 106L2.99599e-06 106L7.62939e-06 -4.63341e-06L106 0Z" fill="#F03F5F"/>
<g clip-path="url(#clip0)">
<path d="M86.6364 55.0069C86.6364 50.5436 81.0253 46.3138 72.4225 43.6908C74.4078 34.9565 73.5254 28.0076 69.6377 25.7828C68.6957 25.2562 67.6294 24.9906 66.5495 25.0137V28.0762C67.0954 28.0594 67.6365 28.1823 68.1211 28.4333C69.9961 29.5045 70.8095 33.5832 70.1753 38.8293C70.0237 40.1202 69.7755 41.4797 69.4722 42.8668C66.5907 42.1749 63.6661 41.6749 60.7178 41.3699C58.9616 38.9565 57.0456 36.6625 54.9827 34.5033C59.477 30.3422 63.6957 28.0625 66.5633 28.0625V25C62.772 25 57.8089 27.6917 52.7906 32.361C47.7723 27.7192 42.8092 25.0549 39.0179 25.0549V28.1174C41.8717 28.1174 46.1042 30.3834 50.5986 34.5171C48.5454 36.6688 46.643 38.9585 44.9048 41.3699C41.9505 41.6714 39.0208 42.1761 36.1366 42.8805C35.8195 41.5072 35.5851 40.1751 35.4197 38.8979C34.7717 33.6519 35.5713 29.5731 37.4325 28.4882C37.8461 28.241 38.3838 28.1312 39.0179 28.1312V25.0687C37.9293 25.0456 36.8541 25.311 35.9022 25.8377C32.0282 28.0625 31.1597 34.9977 33.1587 43.7045C24.5835 46.3413 19 50.5573 19 55.0069C19 59.4564 24.6111 63.6999 33.2138 66.323C31.2286 75.0572 32.1109 82.0062 35.9987 84.2309C36.8948 84.7528 37.9426 85 39.1007 85C42.8919 85 47.8551 82.3083 52.8733 77.639C57.8916 82.2808 62.8547 84.9451 66.646 84.9451C67.7346 84.9681 68.8099 84.7027 69.7617 84.176C73.6357 81.9512 74.5043 75.016 72.5052 66.3092C81.0528 63.6862 86.6364 59.4564 86.6364 55.0069ZM68.6864 45.8469C68.1763 47.6185 67.5421 49.445 66.8252 51.2715C66.26 50.1728 65.6672 49.0742 65.0192 47.9755C64.3712 46.8769 63.7095 45.8057 63.0339 44.762C64.9916 45.0504 66.8804 45.4074 68.6864 45.8469ZM62.3722 60.4726C61.2969 62.3266 60.1939 64.0845 59.0497 65.7187C56.9955 65.8972 54.9137 65.9934 52.8182 65.9934C50.7226 65.9934 48.6547 65.8972 46.6143 65.7324C45.47 64.0982 44.3579 62.3587 43.278 60.5139C42.2302 58.7194 41.2743 56.8975 40.4104 55.0481C41.2651 53.2078 42.2302 51.3676 43.2642 49.5686C44.3395 47.7146 45.4424 45.9567 46.5867 44.3225C48.6409 44.144 50.7226 44.0478 52.8182 44.0478C54.9137 44.0478 56.9817 44.144 59.0221 44.3088C60.1664 45.943 61.2785 47.6825 62.3584 49.5274C63.4062 51.3264 64.362 53.1483 65.226 54.9931C64.3574 56.8334 63.4062 58.6736 62.3722 60.4726ZM66.8252 58.6873C67.5697 60.5276 68.2039 62.3678 68.7278 64.1531C66.9217 64.5926 65.0192 64.9634 63.0477 65.2518C63.7233 64.1943 64.3988 63.1094 65.033 61.997C65.6672 60.8846 66.26 59.786 66.8252 58.6873ZM52.8458 73.3406C51.4934 71.9422 50.2142 70.4753 49.0131 68.946C50.2539 69.0009 51.5223 69.0421 52.8044 69.0421C54.0865 69.0421 55.3825 69.0147 56.637 68.946C55.4537 70.4779 54.1881 71.9449 52.8458 73.3406ZM42.5886 65.2518C40.631 64.9634 38.7422 64.6063 36.9362 64.1669C37.4463 62.3953 38.0805 60.5688 38.7974 58.7423C39.3626 59.8409 39.9554 60.9396 40.6034 62.0382C41.2513 63.1369 41.9131 64.2081 42.5886 65.2518ZM52.7768 36.6732C54.1292 38.0716 55.4084 39.5384 56.6095 41.0678C55.3687 41.0128 54.1003 40.9716 52.8182 40.9716C51.536 40.9716 50.2401 40.9991 48.9855 41.0678C50.1688 39.5359 51.4344 38.0689 52.7768 36.6732ZM42.5748 44.762C41.8993 45.8194 41.2238 46.9043 40.5896 48.0167C39.9554 49.1291 39.3626 50.214 38.7974 51.3127C38.0529 49.4724 37.4187 47.6322 36.8948 45.8469C38.7008 45.4212 40.6034 45.0504 42.5748 44.762ZM30.0981 61.9558C25.2177 59.8821 22.0606 57.163 22.0606 55.0069C22.0606 52.8508 25.2177 50.1179 30.0981 48.0579C31.2837 47.5498 32.5797 47.0966 33.9169 46.6709C34.7604 49.5252 35.7967 52.3194 37.0189 55.0343C35.8099 57.7359 34.7873 60.5164 33.9583 63.3566C32.5934 62.9309 31.2975 62.464 30.0981 61.9558ZM37.5152 81.5805C35.6403 80.5093 34.8269 76.4305 35.461 71.1845C35.6127 69.8936 35.8608 68.534 36.1641 67.1469C39.0457 67.8388 41.9703 68.3389 44.9185 68.6439C46.6748 71.0573 48.5908 73.3512 50.6537 75.5104C46.1593 79.6716 41.9407 81.9513 39.0731 81.9513C38.5311 81.9573 37.9959 81.83 37.5152 81.5805ZM70.2167 71.1158C70.8647 76.3619 70.065 80.4406 68.2039 81.5255C67.7903 81.7727 67.2526 81.8826 66.6184 81.8826C63.7646 81.8826 59.5322 79.6166 55.0378 75.483C57.0909 73.3312 58.9933 71.0415 60.7316 68.6301C63.6858 68.3286 66.6155 67.8239 69.4998 67.1195C69.8092 68.4381 70.0485 69.7721 70.2167 71.1158ZM75.5245 61.9558C74.3388 62.464 73.0429 62.9171 71.7056 63.3429C70.8622 60.4885 69.8258 57.6943 68.6037 54.9794C69.8127 52.2779 70.8353 49.4973 71.6643 46.6571C73.0291 47.0829 74.3251 47.5498 75.5383 48.0579C80.4187 50.1316 83.5758 52.8508 83.5758 55.0069C83.5758 57.163 80.4049 59.8959 75.5245 61.9558Z" fill="white"/>
<path d="M52.8043 61.283C56.2839 61.283 59.1047 58.4731 59.1047 55.0069C59.1047 51.5408 56.2839 48.7309 52.8043 48.7309C49.3247 48.7309 46.5039 51.5408 46.5039 55.0069C46.5039 58.4731 49.3247 61.283 52.8043 61.283Z" fill="white"/>
</g>
<defs>
<clipPath id="clip0">
<rect width="67.6364" height="60" fill="white" transform="translate(19 25)"/>
</clipPath>
</defs>
</svg>
