<svg width="60" height="60" viewBox="0 0 60 60">
<path d="M0 30V60H60V0H0V30ZM48.3504 27.6C49.7875 27.9335 51.0936 28.6851 52.104 29.76C52.6605 30.3388 53.1441 30.9836 53.544 31.68C53.544 31.7568 50.952 33.5088 49.3728 34.488C49.3152 34.5264 49.0848 34.2768 48.8304 33.8976C48.5425 33.3999 48.1329 32.9833 47.6401 32.687C47.1474 32.3906 46.5874 32.2242 46.0128 32.2032C44.1936 32.0784 43.0224 33.0336 43.032 34.6032C43.0188 34.9938 43.1082 35.3811 43.2912 35.7264C43.6896 36.5568 44.4336 37.0512 46.7664 38.0592C51.0624 39.9072 52.9008 41.1264 54.0432 42.8592C55.32 44.7792 55.6032 47.88 54.7392 50.1744C53.7792 52.6704 51.4272 54.3648 48.1008 54.9264C46.5815 55.1001 45.0465 55.0839 43.5312 54.8784C41.2186 54.5033 39.0854 53.4022 37.44 51.7344C36.888 51.1248 35.8128 49.536 35.88 49.4208C36.0563 49.2923 36.2407 49.1753 36.432 49.0704L38.64 47.8032L40.3632 46.8048L40.7232 47.3376C41.3323 48.2054 42.1052 48.9457 42.9984 49.5168C44.9184 50.5248 47.5392 50.3856 48.8352 49.2192C49.2703 48.7918 49.5418 48.2253 49.6023 47.6184C49.6628 47.0114 49.5086 46.4025 49.1664 45.8976C48.6864 45.2304 47.7264 44.6688 45.0432 43.4976C41.9472 42.1632 40.6128 41.3376 39.3936 40.0224C38.6312 39.1554 38.0691 38.1311 37.7472 37.0224C37.506 35.7564 37.4704 34.4598 37.6416 33.1824C38.28 30.192 40.5216 28.104 43.7952 27.4848C45.3113 27.2982 46.8468 27.3402 48.3504 27.6096V27.6ZM34.2672 30.1152V32.5728H26.4768V54.7632H20.952V32.568H13.1424V30.168C13.1216 29.3418 13.144 28.5151 13.2096 27.6912C13.2384 27.6528 18.0096 27.6336 23.7696 27.6432H34.2384L34.2672 30.1152Z" fill="white"/>
</svg>