<svg width="106" height="106" viewBox="0 0 106 106" fill="none" xmlns="http://www.w3.org/2000/svg">
<path d="M106 0L106 106L2.99599e-06 106L7.62939e-06 -4.63341e-06L106 0Z" fill="#F03F5F"/>
<path d="M23 53V83H83V23H23V53ZM71.3504 50.6C72.7875 50.9335 74.0936 51.6851 75.104 52.76C75.6605 53.3388 76.1441 53.9836 76.544 54.68C76.544 54.7568 73.952 56.5088 72.3728 57.488C72.3152 57.5264 72.0848 57.2768 71.8304 56.8976C71.5425 56.3999 71.1329 55.9833 70.6401 55.687C70.1474 55.3906 69.5874 55.2242 69.0128 55.2032C67.1936 55.0784 66.0224 56.0336 66.032 57.6032C66.0188 57.9938 66.1082 58.3811 66.2912 58.7264C66.6896 59.5568 67.4336 60.0512 69.7664 61.0592C74.0624 62.9072 75.9008 64.1264 77.0432 65.8592C78.32 67.7792 78.6032 70.88 77.7392 73.1744C76.7792 75.6704 74.4272 77.3648 71.1008 77.9264C69.5815 78.1001 68.0465 78.0839 66.5312 77.8784C64.2186 77.5033 62.0854 76.4022 60.44 74.7344C59.888 74.1248 58.8128 72.536 58.88 72.4208C59.0563 72.2923 59.2407 72.1753 59.432 72.0704L61.64 70.8032L63.3632 69.8048L63.7232 70.3376C64.3323 71.2054 65.1052 71.9457 65.9984 72.5168C67.9184 73.5248 70.5392 73.3856 71.8352 72.2192C72.2703 71.7918 72.5418 71.2253 72.6023 70.6184C72.6628 70.0114 72.5086 69.4025 72.1664 68.8976C71.6864 68.2304 70.7264 67.6688 68.0432 66.4976C64.9472 65.1632 63.6128 64.3376 62.3936 63.0224C61.6312 62.1554 61.0691 61.1311 60.7472 60.0224C60.506 58.7564 60.4704 57.4598 60.6416 56.1824C61.28 53.192 63.5216 51.104 66.7952 50.4848C68.3113 50.2982 69.8468 50.3402 71.3504 50.6096V50.6ZM57.2672 53.1152V55.5728H49.4768V77.7632H43.952V55.568H36.1424V53.168C36.1216 52.3418 36.144 51.5151 36.2096 50.6912C36.2384 50.6528 41.0096 50.6336 46.7696 50.6432H57.2384L57.2672 53.1152Z" fill="white"/>
</svg>
